<svg fill="#4654A3" version="1.1" xmlns="http://www.w3.org/2000/svg" xmlns:xlink="http://www.w3.org/1999/xlink" viewBox="114.8 44.8 470.4 470.39">
  <g>
    <path d="m585.2 154h-84c-4.6367 0-8.3984-3.7617-8.3984-8.3984v-84z"></path>
    <path d="m404.39 418.02-15.676 70.828c-3.4062 15.391-17.047 26.344-32.805 26.344h-61.23c-25.195 0-48.625-16.801-62.277-33.602h-33.602l-0.003907-84h45.16c30.117-18.848 46.465-42.461 49.98-71.559 0.85156-7.0391 8.0352-12.672 15.121-12.426 20.766 0.73438 35.789 20.676 30.309 40.926-3.6055 13.328-7.1836 23.508-13.324 35.648-1.7148 3.3867 0.64844 7.4023 4.4453 7.4023h57.496c10.742 0.007812 18.723 9.9492 16.406 20.438z"></path>
    <path d="m123.2 380.8h42c4.6367 0 8.3984 3.7617 8.3984 8.3984v100.8c0 4.6367-3.7617 8.3984-8.3984 8.3984h-42c-4.6367 0-8.3984-3.7617-8.3984-8.3984v-100.8c0-4.6367 3.7617-8.3984 8.3984-8.3984z"></path>
    <path d="m484.4 179.2c-9.2773 0-16.801-7.5195-16.801-16.801l0.003906-117.6h-210c-4.6367 0-8.4023 3.7578-8.4023 8.3984v308.65c11.52-11.273 17.922-23.941 19.719-38.832 2.3516-19.41 19.785-34.609 39.688-34.609 19.062 0.65625 35.273 9.2109 45.824 23.52 14.953 20.277 12.707 39.09 5.9883 60.473h27.57c12.797 0 24.734 5.7227 32.75 15.703 8.0117 9.9922 11.027 22.871 8.2539 35.371l-5.4297 24.527h153.24c4.6367 0 8.3984-3.7617 8.3984-8.3984v-260.4zm-134.4-84c18.559 0 33.602 15.043 33.602 33.602 0 18.559-15.043 33.602-33.602 33.602s-33.602-15.043-33.602-33.602c0-18.559 15.043-33.602 33.602-33.602zm50.398 151.2h-100.8v-16.801c0-27.836 22.562-50.398 50.398-50.398s50.398 22.562 50.398 50.398zm134.4 126c0 4.6367-3.7617 8.3984-8.3984 8.3984h-67.199c-4.6367 0-8.3984-3.7617-8.3984-8.3984v-16.801c0-4.6406 3.7617-8.3984 8.3984-8.3984h67.199c4.6367 0 8.3984 3.7578 8.3984 8.3984zm0-67.199c0 4.6367-3.7617 8.3984-8.3984 8.3984h-100.8c-4.6367 0-8.3984-3.7617-8.3984-8.3984v-16.801c0-4.6406 3.7617-8.3984 8.3984-8.3984h100.8c4.6367 0 8.3984 3.7578 8.3984 8.3984z"></path>
    <use x="70" y="644" xlink:href="#u"></use>
    <use x="90.550781" y="644" xlink:href="#b"></use>
    <use x="104.359375" y="644" xlink:href="#a"></use>
    <use x="123.347656" y="644" xlink:href="#d"></use>
    <use x="142.242188" y="644" xlink:href="#c"></use>
    <use x="155.628906" y="644" xlink:href="#a"></use>
    <use x="174.617188" y="644" xlink:href="#k"></use>
    <use x="204.410156" y="644" xlink:href="#g"></use>
    <use x="224.453125" y="644" xlink:href="#f"></use>
    <use x="252.453125" y="644" xlink:href="#j"></use>
    <use x="274.121094" y="644" xlink:href="#f"></use>
    <use x="292.375" y="644" xlink:href="#i"></use>
    <use x="312.304688" y="644" xlink:href="#g"></use>
    <use x="342.097656" y="644" xlink:href="#t"></use>
    <use x="352.515625" y="644" xlink:href="#b"></use>
    <use x="366.324219" y="644" xlink:href="#d"></use>
    <use x="385.21875" y="644" xlink:href="#s"></use>
    <use x="411.085938" y="644" xlink:href="#d"></use>
    <use x="429.980469" y="644" xlink:href="#h"></use>
    <use x="70" y="672" xlink:href="#r"></use>
    <use x="82.183594" y="672" xlink:href="#b"></use>
    <use x="95.992188" y="672" xlink:href="#e"></use>
    <use x="115.226562" y="672" xlink:href="#q"></use>
    <use x="154.152344" y="672" xlink:href="#c"></use>
    <use x="167.535156" y="672" xlink:href="#p"></use>
    <use x="187.46875" y="672" xlink:href="#a"></use>
    <use x="216.207031" y="672" xlink:href="#o"></use>
    <use x="239.640625" y="672" xlink:href="#e"></use>
    <use x="258.878906" y="672" xlink:href="#i"></use>
    <use x="278.8125" y="672" xlink:href="#h"></use>
    <use x="308.492188" y="672" xlink:href="#n"></use>
    <use x="329.015625" y="672" xlink:href="#b"></use>
    <use x="342.820312" y="672" xlink:href="#e"></use>
    <use x="362.058594" y="672" xlink:href="#m"></use>
    <use x="371.65625" y="672" xlink:href="#a"></use>
    <use x="390.648438" y="672" xlink:href="#l"></use>
    <use x="407.242188" y="672" xlink:href="#c"></use>
  </g>
</svg>