<svg fill="#4654A3" version="1.1" xmlns="http://www.w3.org/2000/svg" xmlns:xlink="http://www.w3.org/1999/xlink" viewBox="98.76 101.82 504.39 414.4">
  <g>
    <path d="m259.73 153.32c0 28.445-23.059 51.504-51.504 51.504-28.445 0-51.504-23.059-51.504-51.504 0-28.445 23.059-51.504 51.504-51.504 28.445 0 51.504 23.059 51.504 51.504"></path>
    <path d="m205.22 295.29c15.641 0 29.863 6.1719 40.398 16.184 5.0664-1.4219 10.305-2.4883 15.625-3.2148-23.457-7.6953-40.461-29.793-40.461-55.793 0-13.066 4.3008-25.145 11.543-34.906-8.0234-1.6367-16.398-2.4375-24.746-2.4375-9.0156 0-18.156 0.97266-26.891 2.9922 7 9.6719 11.145 21.531 11.145 34.355 0 26.105-17.129 48.273-40.73 55.883 4.8398 0.6875 9.543 1.6172 14.043 2.8125 10.5-9.832 24.59-15.875 40.074-15.875z"></path>
    <path d="m546.49 153.32c0 28.445-23.059 51.504-51.504 51.504-28.441 0-51.5-23.059-51.5-51.504 0-28.445 23.059-51.504 51.5-51.504 28.445 0 51.504 23.059 51.504 51.504"></path>
    <path d="m442.19 306.76v2.2617c3.3203 0.58203 6.5781 1.2812 9.7227 2.1211 10.5-9.8242 24.602-15.859 40.078-15.859 15.773 0 30.109 6.2773 40.68 16.445 5.3594-1.5469 10.891-2.6953 16.543-3.4766-23.457-7.6953-40.453-29.793-40.453-55.793 0-12.969 4.2344-24.969 11.387-34.699-8.3438-1.793-17.086-2.6484-25.801-2.6484-9.0117 0-18.148 0.97266-26.898 2.9922 7 9.6719 11.145 21.531 11.145 34.355 0.007812 24.488-15.07 45.508-36.402 54.301z"></path>
    <path d="m406.11 153.32c0 28.441-23.055 51.496-51.496 51.496s-51.5-23.055-51.5-51.496 23.059-51.496 51.5-51.496 51.496 23.055 51.496 51.496"></path>
    <path d="m297.49 308.35c4.8398 0.67578 9.543 1.6055 14.043 2.8125 10.5-9.832 24.594-15.859 40.074-15.859 15.004 0 28.707 5.668 39.09 14.953 3.5898-0.82812 7.2422-1.4883 10.922-1.9883-23.453-7.6953-40.453-29.793-40.453-55.793 0-13.492 4.582-25.934 12.258-35.855-6.3828-0.99609-12.938-1.4883-19.477-1.4883-9.0117 0-18.148 0.97266-26.891 2.9922 7 9.6719 11.145 21.531 11.145 34.355 0.019531 26.09-17.113 48.258-40.711 55.871z"></path>
    <path d="m184.62 252.46c0-28.441-23.055-51.496-51.504-51.496-8.4492 0-16.426 2.0508-23.465 5.6602-7.0664 23.211-10.887 47.836-10.887 73.328 0 3.7227 0.10156 7.4141 0.25781 11.098 9.082 8.0352 21.016 12.918 34.094 12.918 28.449-0.003906 51.504-23.059 51.504-51.508z"></path>
    <path d="m146.51 354.01c0-13.926 4.8828-26.734 13.02-36.809-8.7266-1.9805-17.902-2.9219-27.059-2.9219-10.367 0-20.906 1.2812-30.805 3.9688 6.0078 39.289 21.125 75.605 43.098 106.75 11.984-8.0742 26.73-13.07 42.203-15.191-23.465-7.6992-40.457-29.797-40.457-55.801z"></path>
    <path d="m471.39 252.46c0 28.445-23.059 51.504-51.504 51.504-28.445 0-51.504-23.059-51.504-51.504 0-28.445 23.059-51.504 51.504-51.504 28.445 0 51.504 23.059 51.504 51.504"></path>
    <path d="m433.28 354.01c0-13.926 4.8789-26.734 13.016-36.809-8.7305-1.9805-17.898-2.9219-27.059-2.9219-7.5586 0-15.203 0.68359-22.625 2.082 8.5469 10.191 13.707 23.336 13.707 37.66 0 26.102-17.129 48.266-40.73 55.883 15.695 2.2109 29.848 7.1836 40.957 14.59 4.0156 2.6719 7.582 5.6328 10.773 8.8594 13.184-13.094 32.168-20.77 52.398-23.535-23.453-7.707-40.438-29.805-40.438-55.809z"></path>
    <path d="m515.98 252.46c0 28.449 23.051 51.504 51.492 51.504 13.754 0 26.242-5.4102 35.48-14.195 0.11719-3.2578 0.20312-6.5312 0.20312-9.8164 0-25.188-3.7305-49.516-10.625-72.48-7.4141-4.1445-15.965-6.5078-25.059-6.5078-28.441 0-51.492 23.055-51.492 51.496z"></path>
    <path d="m538.07 317.69c7.9062 9.9961 12.641 22.617 12.641 36.309 0 26.102-17.141 48.266-40.73 55.883 15.703 2.2109 29.848 7.1836 40.957 14.59 1.5117 1.0078 2.9453 2.0625 4.3281 3.1523 22.895-31.59 38.652-68.645 44.895-108.82-10.523-3.0977-21.945-4.5547-33.336-4.5547-9.6523 0.019531-19.453 1.125-28.754 3.4414z"></path>
    <path d="m331.01 252.46c0 28.445-23.059 51.504-51.504 51.504-28.445 0-51.504-23.059-51.504-51.504 0-28.445 23.059-51.504 51.504-51.504 28.445 0 51.504 23.059 51.504 51.504"></path>
    <path d="m292.89 354.01c0-13.926 4.8906-26.734 13.027-36.809-8.7266-1.9805-17.902-2.9219-27.059-2.9219-9.3086 0-18.75 1.0352-27.742 3.1875 8.0078 10.039 12.82 22.746 12.82 36.547 0 26.102-17.129 48.266-40.723 55.883 15.688 2.207 29.844 7.1836 40.957 14.582 5.3086 3.5391 9.8828 7.5898 13.746 12.09 13.199-15.07 33.594-23.781 55.434-26.762-23.457-7.6953-40.461-29.793-40.461-55.797z"></path>
    <path d="m256.73 354.01c0 28.445-23.059 51.504-51.504 51.504-28.445 0-51.504-23.059-51.504-51.504 0-28.441 23.059-51.5 51.504-51.5 28.445 0 51.504 23.059 51.504 51.5"></path>
    <path d="m273.4 442.41c-15.074-18.555-42.051-26.602-68.824-26.602-19.812 0-40.242 4.625-55.629 14.957 28.734 38.395 68.156 68.348 113.8 85.449v-37.504c0-14.441 3.957-26.488 10.648-36.301z"></path>
    <path d="m543.48 354.01c0 28.441-23.055 51.5-51.496 51.5-28.441 0-51.496-23.059-51.496-51.5 0-28.441 23.055-51.496 51.496-51.496 28.441 0 51.496 23.055 51.496 51.496"></path>
    <path d="m426.07 438.71c8.6172 10.992 13.109 24.535 13.109 40v37.504c44.586-16.695 83.223-45.672 111.78-82.797-15.562-12.188-37.656-17.613-59.613-17.613-24.316 0.003906-49.555 6.9805-65.273 22.906z"></path>
    <use x="70" y="644" xlink:href="#x"></use>
    <use x="90.550781" y="644" xlink:href="#d"></use>
    <use x="104.359375" y="644" xlink:href="#a"></use>
    <use x="123.347656" y="644" xlink:href="#e"></use>
    <use x="142.242188" y="644" xlink:href="#c"></use>
    <use x="155.628906" y="644" xlink:href="#a"></use>
    <use x="174.617188" y="644" xlink:href="#l"></use>
    <use x="204.410156" y="644" xlink:href="#k"></use>
    <use x="224.453125" y="644" xlink:href="#j"></use>
    <use x="252.453125" y="644" xlink:href="#i"></use>
    <use x="273.792969" y="644" xlink:href="#w"></use>
    <use x="283.390625" y="644" xlink:href="#e"></use>
    <use x="302.285156" y="644" xlink:href="#v"></use>
    <use x="320.90625" y="644" xlink:href="#a"></use>
    <use x="349.644531" y="644" xlink:href="#u"></use>
    <use x="368.742188" y="644" xlink:href="#h"></use>
    <use x="388.679688" y="644" xlink:href="#b"></use>
    <use x="407.914062" y="644" xlink:href="#g"></use>
    <use x="437.089844" y="644" xlink:href="#t"></use>
    <use x="457.132812" y="644" xlink:href="#s"></use>
    <use x="473.796875" y="644" xlink:href="#b"></use>
    <use x="493.035156" y="644" xlink:href="#f"></use>
    <use x="70" y="672" xlink:href="#r"></use>
    <use x="82.183594" y="672" xlink:href="#d"></use>
    <use x="95.992188" y="672" xlink:href="#b"></use>
    <use x="115.226562" y="672" xlink:href="#g"></use>
    <use x="154.152344" y="672" xlink:href="#c"></use>
    <use x="167.535156" y="672" xlink:href="#h"></use>
    <use x="187.46875" y="672" xlink:href="#a"></use>
    <use x="216.207031" y="672" xlink:href="#q"></use>
    <use x="239.640625" y="672" xlink:href="#b"></use>
    <use x="258.878906" y="672" xlink:href="#p"></use>
    <use x="278.8125" y="672" xlink:href="#f"></use>
    <use x="308.492188" y="672" xlink:href="#o"></use>
    <use x="329.015625" y="672" xlink:href="#d"></use>
    <use x="342.820312" y="672" xlink:href="#b"></use>
    <use x="362.058594" y="672" xlink:href="#n"></use>
    <use x="371.65625" y="672" xlink:href="#a"></use>
    <use x="390.648438" y="672" xlink:href="#m"></use>
    <use x="407.242188" y="672" xlink:href="#c"></use>
  </g>
</svg>