<svg fill="#4654A3" version="1.1" xmlns="http://www.w3.org/2000/svg" xmlns:xlink="http://www.w3.org/1999/xlink" viewBox="172.9 28 354.2 503.99">
  <g>
    <path d="m190.76 305.88c0.50391 0.035156 0.99609 0.054688 1.4961 0.054688 9.8672 0 18.246-7.5977 19.02-17.613l5.4258-69.934 36.641-26.41v101.44c0 5.1016 1.3828 9.8633 3.5938 14.055l-41.137 170.44c-2.9609 12.32 4.5977 24.68 16.891 27.652 1.8203 0.42969 3.625 0.62109 5.4102 0.62109 10.344 0 19.719-7.0352 22.254-17.523l39.188-162.42 44.535 21.234-3.7344 60.285c-0.78516 12.621 8.8086 23.508 21.449 24.281 0.46875 0.027344 0.95703 0.042969 1.4492 0.042969 12.008 0 22.086-9.3477 22.832-21.492l4.7148-75.719c0.58203-9.3203-4.5586-18.082-13.008-22.082l-63.332-30.195v-67.031l22.148 26.434c3.1484 3.7578 7.6211 6.1602 12.48 6.7148l67.336 7.6328c0.73438 0.074219 1.457 0.11719 2.1797 0.11719 9.582 0 17.84-7.1953 18.934-16.934 1.2031-10.484-6.3438-19.938-16.824-21.129l-59.754-6.7656-48.664-58.102c-1.4453-3.6953-3.5898-7.0273-6.2656-9.8633-2.5547-9.8711-11.441-17.199-22.109-17.199-7.9414 0-14.926 4.0273-19.027 10.148l-77.668 55.984c-4.5469 3.2891-7.4297 8.418-7.8555 14.004l-6.1133 78.746c-0.85547 10.531 7.0117 19.719 17.516 20.527z" />
    <path d="m351.23 75.41c0 26.184-21.227 47.41-47.41 47.41s-47.41-21.227-47.41-47.41 21.227-47.41 47.41-47.41 47.41 21.227 47.41 47.41" />
    <path d="m527.1 285.86-56.254 17.555 12.941 12.945-61.48 49.332c-1.8047 1.4453-2.8672 3.6406-2.8672 5.9531v68.723h-115.62c-4.2188 0-7.6328 3.4141-7.6328 7.6328v68.73h-115.65c-4.2109 0-7.6328 3.4102-7.6328 7.6289 0 4.2227 3.4219 7.6328 7.6328 7.6328h123.29c4.2109 0 7.6328-3.4102 7.6328-7.6328v-68.719h115.62c4.2227 0 7.6328-3.4102 7.6328-7.6289v-72.703l59.961-48.094 14.852 14.875z" />
    <use x="70" y="644" xlink:href="#v" />
    <use x="90.550781" y="644" xlink:href="#d" />
    <use x="104.359375" y="644" xlink:href="#a" />
    <use x="123.347656" y="644" xlink:href="#e" />
    <use x="142.242188" y="644" xlink:href="#c" />
    <use x="155.628906" y="644" xlink:href="#a" />
    <use x="174.617188" y="644" xlink:href="#j" />
    <use x="204.410156" y="644" xlink:href="#i" />
    <use x="224.453125" y="644" xlink:href="#h" />
    <use x="252.453125" y="644" xlink:href="#g" />
    <use x="271.578125" y="644" xlink:href="#u" />
    <use x="281.175781" y="644" xlink:href="#b" />
    <use x="300.414062" y="644" xlink:href="#f" />
    <use x="320.34375" y="644" xlink:href="#e" />
    <use x="348.988281" y="644" xlink:href="#t" />
    <use x="372.789062" y="644" xlink:href="#s" />
    <use x="70" y="672" xlink:href="#r" />
    <use x="82.183594" y="672" xlink:href="#d" />
    <use x="95.992188" y="672" xlink:href="#b" />
    <use x="115.226562" y="672" xlink:href="#q" />
    <use x="154.152344" y="672" xlink:href="#c" />
    <use x="167.535156" y="672" xlink:href="#p" />
    <use x="187.46875" y="672" xlink:href="#a" />
    <use x="216.207031" y="672" xlink:href="#o" />
    <use x="239.640625" y="672" xlink:href="#b" />
    <use x="258.878906" y="672" xlink:href="#n" />
    <use x="278.8125" y="672" xlink:href="#f" />
    <use x="308.492188" y="672" xlink:href="#m" />
    <use x="329.015625" y="672" xlink:href="#d" />
    <use x="342.820312" y="672" xlink:href="#b" />
    <use x="362.058594" y="672" xlink:href="#l" />
    <use x="371.65625" y="672" xlink:href="#a" />
    <use x="390.648438" y="672" xlink:href="#k" />
    <use x="407.242188" y="672" xlink:href="#c" />
  </g>
</svg>